<svg width="46" height="46" viewBox="0 0 46 46" fill="none" xmlns="http://www.w3.org/2000/svg">
<path d="M22.9999 23.0002C21.9483 25.0418 20.5382 26.8778 18.8369 28.4205C17.7648 29.4929 16.3988 30.2233 14.9115 30.5194C13.4243 30.8154 11.8826 30.6637 10.4816 30.0835C9.08055 29.5033 7.88304 28.5206 7.04052 27.2598C6.19799 25.999 5.74829 24.5166 5.74829 23.0002C5.74829 21.4837 6.19799 20.0014 7.04052 18.7406C7.88304 17.4797 9.08055 16.4971 10.4816 15.9169C11.8826 15.3367 13.4243 15.185 14.9115 15.481C16.3988 15.777 17.7648 16.5074 18.8369 17.5798C20.5382 19.1226 21.9482 20.9585 22.9999 23.0002ZM22.9999 23.0002C24.0516 20.9585 25.4617 19.1226 27.1629 17.5798C28.235 16.5074 29.6011 15.777 31.0884 15.481C32.5756 15.185 34.1172 15.3367 35.5183 15.9169C36.9193 16.4971 38.1168 17.4797 38.9593 18.7406C39.8019 20.0014 40.2516 21.4837 40.2516 23.0002C40.2516 24.5166 39.8019 25.999 38.9593 27.2598C38.1168 28.5206 36.9193 29.5033 35.5183 30.0835C34.1172 30.6637 32.5756 30.8154 31.0884 30.5194C29.6011 30.2233 28.235 29.4929 27.1629 28.4205C25.4617 26.8778 24.0516 25.0418 22.9999 23.0002Z" stroke="#151515" stroke-linecap="round" stroke-linejoin="round"/>
</svg>
