<svg width="111" height="17" viewBox="0 0 111 17" fill="none" xmlns="http://www.w3.org/2000/svg">
<path d="M18.2543 17V6.52933L18.3418 4.21439L17.4893 6.49371L12.7463 17H9.15084L4.44062 6.52933L3.55541 4.1669L3.65377 6.51746V17H0.134766V0H5.43512L10.2765 11.1236L11.107 13.9253L11.9486 11.1236L16.7899 0H22.0793V17H18.2543Z" fill="#151515"/>
<path d="M38.5002 13.6878H29.342L27.9213 17H23.6482L31.495 0H36.4893L44.3579 17H39.9318L38.5002 13.6878ZM30.6425 10.6606H37.1997L33.9211 3.01536L30.6425 10.6606Z" fill="#151515"/>
<path d="M45.894 17V0H50.0031V17H45.894Z" fill="#151515"/>
<path d="M53.3753 17V0H57.4844V13.6641H68.1507V17H53.3753Z" fill="#151515"/>
<path d="M70.1458 17V0H85.0524V3.32402H74.255V8.01327H83.577V11.2898H74.255V17H70.1458Z" fill="#151515"/>
<path d="M87.0038 17V0H91.1129V17H87.0038Z" fill="#151515"/>
<path d="M99.3811 17V3.40712H92.7146V0H110.135V3.40712H103.49V17H99.3811Z" fill="#151515"/>
</svg>
