<svg width="34" height="34" viewBox="0 0 34 34" fill="none" xmlns="http://www.w3.org/2000/svg">
<rect x="0.75" y="0.75" width="32.5" height="32.5" rx="16.25" stroke="#151515" stroke-width="1.5"/>
<path d="M23.6666 24.5V22.8333C23.6666 21.9493 23.3154 21.1014 22.6903 20.4763C22.0652 19.8512 21.2173 19.5 20.3333 19.5H13.6666C12.7825 19.5 11.9347 19.8512 11.3096 20.4763C10.6844 21.1014 10.3333 21.9493 10.3333 22.8333V24.5" stroke="#151515" stroke-width="1.5" stroke-linecap="square" stroke-linejoin="round"/>
<path d="M17.0001 9.5C16.116 9.5 15.2682 9.85119 14.6431 10.4763C14.0179 11.1014 13.6667 11.9493 13.6667 12.8333C13.6667 13.7174 14.0179 14.5652 14.6431 15.1904C15.2682 15.8155 16.116 16.1667 17.0001 16.1667C17.8841 16.1667 18.732 15.8155 19.3571 15.1904C19.9822 14.5652 20.3334 13.7174 20.3334 12.8333C20.3334 11.9493 19.9822 11.1014 19.3571 10.4763C18.732 9.85119 17.8841 9.5 17.0001 9.5Z" stroke="#151515" stroke-width="1.5" stroke-linecap="round" stroke-linejoin="round"/>
</svg>
